# xmcd CD database file
#
# Track frame offsets:
#	150
#	15085
#	50348
#	65472
#	73842
#	93964
#	108913
#	124448
#	140528
#	166680
#	332550
#
# Disc length: 4440 seconds
#
# Revision: 0
# Processed by: cddbd v1.5.1PL0 Copyright (c) Steve Scherf et al.
# Submitted via: CDex 1.51
#
DISCID=8e11560b
DTITLE=杉良太郎 - 君は人のために死ねるか
DYEAR=2004
DGENRE=JPop
TTITLE0=君は人のために死ねるか (1980年SINGLE Ver.ドラマ「大捜査線」主題歌)
TTITLE1=君は人のために死ねるか (菊地成孔REMIX ver.)
TTITLE2=君は人のために死ねるか (Live ver 1984年)
TTITLE3=君は人のために死ねるか (ドラマ「大捜査線シリーズ　追跡」用別Ver.TV音源)
TTITLE4=チャンピオン (LIVE ver. 1984年)
TTITLE5=江戸の夜明け (「大江戸捜査網」主題歌)
TTITLE6=すきま風 (「遠山の金さん」挿入歌)
TTITLE7=MY WAY (LIVE ver. 1978年)
TTITLE8=君は人のために死ねるか (オリジナル・カラオケ)
TTITLE9=CCCD
TTITLE10=LGCD2
EXTD=YEAR: 2004
EXTT0=
EXTT1=
EXTT2=
EXTT3=
EXTT4=
EXTT5=
EXTT6=
EXTT7=
EXTT8=
EXTT9=
EXTT10=
PLAYORDER=
